<svg enable-background="new 0 0 559.5 177" viewBox="0 0 559.5 177" xmlns="http://www.w3.org/2000/svg"><path d="m438.1 150.6c-8.5 0-16.7 0-25-.1-.5 0-1.2-.8-1.5-1.4-3.5-6.9-7-13.8-10.5-20.8-.3-.5-.6-1-1.3-1.5v1.9 20c0 1.4-.4 1.9-1.8 1.8-5.4-.1-10.8 0-16.3 0 0-15.3 0-30.5 0-45.9h3.6c6.7 0 13.5.1 20.2-.1 1.9 0 2.7.6 3.5 2.3 3.1 6.6 6.4 13.2 9.6 19.8.3.5.6 1 1.2 1.5 0-7.7 0-15.5 0-23.4h18.3z"/><path d="m489.9 125c.6.3.9.4 1.2.5 10.1 2.9 9.6 15.4 3.7 20.2-3.4 2.8-7.4 4.2-11.7 4.4-8.1.4-16.2.4-24.3.4-4.8.1-9.7 0-14.7 0 0-15.3 0-30.5 0-45.9.3 0 .7-.1 1-.1 11.8 0 23.5-.1 35.3.1 4.4 0 8.7.9 12.4 3.5 3.3 2.4 4.6 5.7 4 9.7-.5 3.5-2.8 5.5-5.9 6.7-.2.2-.4.3-1 .5zm-25 13.5c3.1 0 5.9.1 8.8 0 1.9-.1 3.4-1.8 3.4-3.4 0-1.8-1.3-3.4-3.4-3.6-2.5-.2-5.1-.3-7.6-.2-.4 0-1.1.7-1.2 1.1-.1 2 0 4 0 6.1zm0-21.9c0 1.9-.1 3.6.1 5.3 0 .4.7 1.2 1.1 1.2 2.1.1 4.2 0 6.3-.2 2.2-.2 3.1-1.3 3.1-3.1s-1-3-3.1-3.1c-2.4-.2-4.8-.1-7.5-.1z"/><path d="m559.5 150.6c-6.9 0-13.7 0-20.5 0-.5 0-1.1-.6-1.3-1.1-.4-.9-.6-1.8-.8-2.8-.9-3-.9-3-4.1-3-3.3 0-6.7.1-10 0-1.5-.1-2 .5-2.3 1.8-.4 1.7-1 3.4-1.5 5.1-7 0-13.8 0-20.8 0 .2-.8.3-1.5.5-2.1 4.6-14.1 9.2-28.2 13.8-42.3.4-1.1.9-1.5 2.1-1.5h28.7c1 0 1.6.2 2 1.3 4.7 14.6 9.5 29.2 14.2 43.8zm-26.5-17.6c-1.4-5.1-2.8-10-4.2-14.8-.2 0-.3 0-.5 0-1.4 4.9-2.8 9.8-4.2 14.8z"/><path d="m295.5 41.4c0-5.3 0-10.2 0-15.3h21.3v45.7c-7.1 0-14.1 0-21.4 0 0-5.5 0-10.9 0-16.5-4.3 0-8.4 0-12.5.1-.3 0-.8 1-.8 1.6-.1 4.2 0 8.5 0 12.7v2.1c-7.1 0-14.1 0-21.3 0 0-15.1 0-30.3 0-45.7h21.3v7c0 2.3-.1 4.6 0 6.9 0 .5.6 1.3 1 1.3 4.1.1 8.1.1 12.4.1z"/><path d="m369 26.2v13.5c-.8 0-1.5 0-2.2 0-6.7 0-13.3 0-20 0-1.5 0-2 .5-2 2s.4 2 1.9 2c6.4-.1 12.8 0 19.3-.1 1.5 0 2.2.3 2.1 2-.1 2.2-.1 4.5 0 6.7.1 1.5-.5 1.8-1.9 1.8-6.4-.1-12.8 0-19.3-.1-1.7 0-2.1.5-2.2 2.2 0 1.7.6 2.2 2.2 2.1 6.8-.1 13.7 0 20.5-.1 1.3 0 1.8.3 1.8 1.7-.1 3.5 0 7 0 10.5 0 .9-.1 1.5-1.3 1.5-14.7 0-29.3 0-44 0-.1 0-.2-.1-.5-.1 0-15.1 0-30.3 0-45.6z"/><path d="m255.9 26.2v14.7c0 1.3-.8 1.1-1.6 1.1-3.8 0-7.6 0-11.5 0-.7 0-1.3 0-2.2 0v29.9c-7.2 0-14.2 0-21.4 0-.1-.8-.1-1.6-.2-2.3 0-8.6 0-17.2 0-25.8 0-1.5-.4-1.9-1.9-1.8-4 .1-8 0-12 .1-1.5 0-1.8-.5-1.8-1.9.1-4.6 0-9.2 0-13.9 17.6-.1 35-.1 52.6-.1z"/><g fill="#f1431c"><path d="m228.8 120.3c-5.7 9.7-8.4 16.2-8.1 19.5.1 1.1.7 1.6 1.9 1.5 3-.3 8.5-3.4 16.5-9.1 8-5.8 12.3-8.7 12.9-8.7 1.2-.1 1.9.3 2 1.4v.3c0 .5-2.3 2.7-6.7 6.5s-10 7.8-16.8 11.9-12.5 6.5-17.3 7c-7.5.8-11.8-3.2-12.7-11.9-.8-7.9 2.4-17.5 9.8-28.7 7.4-11.3 16.3-21.1 26.9-29.6s19.9-13.2 27.9-14c3.5-.4 6.1.4 7.9 2.2s2.8 3.6 2.9 5.3c.4 3.5-1.4 7.7-5.2 12.8s-8.4 9.9-13.8 14.4c-5.4 4.6-10.7 8.6-16 12.2-5.2 3.4-9.3 5.8-12.1 7zm36.9-43.6c-1.4.1-4.5 2.8-9.2 7.8-4.8 5.1-9.2 10.1-13.2 15.2l-6.1 7.5c-.6.8-.9 1.3-.9 1.7s.5.5 1.2.5c3.5-.4 9.2-5.1 17.2-14.3s11.8-15.2 11.5-17.9c.1-.4-.1-.6-.5-.5z"/><path d="m281.9 137.5c0 .4.4.7 1 .8.6-.1 2.6-1.5 5.9-4.4s5.2-4.4 5.7-4.7c.4-.3.9-.5 1.3-.5 1.2-.1 1.9.4 2 1.6s-2.7 4.1-8.4 8.7-9.8 7.1-12.3 7.4c-1 .1-2.2-.2-3.5-.9s-2-1.7-2.1-2.9 0-2.5.5-3.9c.5-1.5.7-2.4.6-2.9s-.2-.7-.5-.7-.5.1-.8.3c-7.7 7.2-13.6 11-17.6 11.5-2.3.2-4.1-.4-5.6-1.9s-2.4-3.1-2.9-4.7l-.5-2.4c-.3-2.9.5-6.3 2.3-10.3s4.3-7.9 7.6-11.7c3.2-3.8 7.4-7.2 12.4-10.1s10.2-4.6 15.7-5.2c2.9-.3 5.8.2 8.5 1.5s4.2 3 4.4 5.1-1.7 3.6-5.7 4.4c-3 1-7.7 4-14.2 9.1-6.5 5-9.7 8.7-9.4 10.9.1 1 .6 1.4 1.6 1.3 1.7-.2 5.6-3.1 11.5-8.7s9.6-8.5 10.9-8.7c1.3-.1 2 .6 2.2 2.1.1 1.1-.2 2.2-.9 3.3s-1.2 1.9-1.5 2.3c-.6.9-2.2 3.1-4.7 6.4-2.5 3.1-3.7 5.8-3.5 7.9z"/><path d="m315.3 98.5c.8-.1 3.2-1 7.2-2.7s6.9-2.6 8.6-2.8 3.4.1 5 .8c1.7.7 2.6 1.8 2.7 3.4.2 1.6-.6 3.4-2.3 5.4s-4 4.4-6.7 7.2c-2.8 2.8-5.3 5.2-7.6 7.5-2.3 2.2-3.6 3.5-3.8 3.8s-.3.7-.3 1.1.4.6 1.1.5c3.8-1 6.1-1.6 6.7-1.6 2.4-.3 5.1.3 7.9 1.7 2.9 1.4 4.4 3.2 4.7 5.6.1 1.2-.3 2.3-1.2 3.3s-2.7 1.7-5.3 2.1c-2.6.5-7.5 2.1-14.7 5s-11.4 4.4-12.7 4.6c-1.3.1-3.1-.5-5.5-1.8-2.3-1.3-3.6-2.6-3.7-3.8-.2-2 2-5.2 6.8-9.5 4.7-4.3 8.2-7.2 10.4-8.7s4.4-3.2 6.5-5.1 3.2-3.1 3.1-3.6-.2-.8-.4-.7c-.2 0-1.5.5-3.7 1.4-2.3.9-4.3 1.5-6.1 1.7s-3.7-.3-5.6-1.5-3-3-3.3-5.5 1.7-5.9 6-10.2c4.2-4.4 7.8-6.7 10.6-7 1-.1 1.6.4 1.7 1.5.1.6-.4 1.4-1.5 2.3-4 3-6 4.7-5.9 5.2.1.3.5.5 1.3.4z"/><path d="m338.5 124.8c-.4-3.6 1.4-8.1 5.5-13.5 4-5.3 8.3-9.8 12.7-13.5s7.2-5.6 8.4-5.7 2.2.6 3.1 2.3c.8 1.7 1.3 3.1 1.5 4.4.1 1.3.2 2.1.1 2.6-.1.4-.2.8-.3 1s-.3.4-.6.7-.6.6-.8.9c-.3.3-1.6 2.1-3.8 5.4-2.3 3.3-3.6 5.2-3.8 5.7-.3.5-.3 1.1-.3 1.9.1.7.4 1.1 1 1s1.1-.3 1.5-.7c3-2.3 9.7-8.8 20.2-19.4 2.2-1.9 3.6-2.9 4.4-3s1.6.2 2.5.9 1.4 1.2 1.4 1.6c.3 2.5-1.9 7.9-6.5 16.3-4.6 8.3-10.3 18.1-17.2 29.3s-11.4 18.9-13.6 23.1-4.5 6.4-6.9 6.7c-1.2.1-2.5-.4-3.8-1.5s-2.1-2.6-2.3-4.4-.2-3.4-.1-5c.1-1.5.7-3.6 1.8-6.2s2.7-5.4 4.6-8.5c2-3.1 3.7-5.7 5.3-8.1 1.6-2.3 3.3-4.8 5.4-7.6 2-2.8 3.2-4.4 3.4-4.8.3-.4.4-.8.4-1 0-.3-.2-.4-.4-.4s-2.1 1.3-5.7 3.8-6.5 3.8-8.9 4.1-4.3-.7-5.7-2.9c-1.6-2.2-2.4-4.1-2.5-5.5z"/></g><circle cx="88.5" cy="88.5" fill="#fc7b24" r="88.5"/><circle cx="88.4" cy="88.5" r="74.5"/><path d="m88.3 58.4c-33.8 0-61.2 13.3-61.2 29.8 0 16.4 27.4 29.8 61.2 29.8s61.2-13.3 61.2-29.8 0 0 0 0c0-16.5-27.4-29.8-61.2-29.8z" fill="#fc7b24"/><path d="m88.3 48.5c17.8 0 34.7 3.4 47.6 9.7 3.1 1.5 5.9 3.1 8.2 4.8-9.6-21.2-31-36-55.8-36s-46.2 14.8-55.8 36c2.4-1.6 5.1-3.2 8.2-4.8 12.9-6.2 29.8-9.7 47.6-9.7z" fill="#f1431c"/><path d="m88.3 127.7c-17.8 0-34.7-3.4-47.6-9.7-3.1-1.5-5.9-3.1-8.2-4.8 9.6 21.2 31 36 55.8 36s46.2-14.8 55.8-36c-2.4 1.6-5.1 3.2-8.2 4.8-12.9 6.3-29.8 9.7-47.6 9.7z" fill="#f1431c"/><path d="m70.8 84.8h-11.4v12.9h-7.2v-12.9h-11.3v-5.5h29.9z"/><path d="m98.6 92.2v5.5h-21.1-2.8v-18.4h7.2v12.9z"/><path d="m136.1 79.3v18.4h-7.2l-19-11v11h-7.2v-18.4h7.2l19 11.2v-11.2z"/></svg>